<svg xmlns="http://www.w3.org/2000/svg">

    <symbol id="telegram-icon" width="42" height="42" viewBox="0 0 42 42" fill="none" xmlns="http://www.w3.org/2000/svg">
        <rect width="42" height="42" rx="21" fill="white" />
        <path d="M32.9316 12.8207L29.3099 29.7927C29.0366 30.9905 28.3241 31.2887 27.3115 30.7244L21.7931 26.6837L19.1304 29.2284C18.8357 29.5212 18.5893 29.7661 18.0214 29.7661L18.4178 24.1815L28.6455 14.9981C29.0902 14.6042 28.5491 14.3859 27.9544 14.7799L15.3104 22.6909L9.86706 20.998C8.68303 20.6306 8.66159 19.8214 10.1135 19.2571L31.4047 11.1065C32.3905 10.7392 33.2531 11.3248 32.9316 12.8207Z" fill="#262632" />
    </symbol>

    <symbol id="telegram-blue-icon" width="42" height="42" viewBox="0 0 42 42" fill="none" xmlns="http://www.w3.org/2000/svg">
        <rect width="42" height="42" rx="21" fill="white" />
        <path d="M32.9316 12.8207L29.3099 29.7927C29.0366 30.9905 28.3241 31.2887 27.3115 30.7244L21.7931 26.6837L19.1304 29.2284C18.8357 29.5212 18.5893 29.7661 18.0214 29.7661L18.4178 24.1815L28.6455 14.9981C29.0902 14.6042 28.5491 14.3859 27.9544 14.7799L15.3104 22.6909L9.86706 20.998C8.68303 20.6306 8.66159 19.8214 10.1135 19.2571L31.4047 11.1065C32.3905 10.7392 33.2531 11.3248 32.9316 12.8207Z" fill="#425DD5" />
    </symbol>

    <symbol id="unlock-black-icon" width="52" height="52" viewBox="0 0 52 52" fill="none" xmlns="http://www.w3.org/2000/svg">
        <rect width="52" height="52" rx="26" fill="white" />
        <path d="M26 31.35C26.9002 31.35 27.63 30.6202 27.63 29.72C27.63 28.8198 26.9002 28.09 26 28.09C25.0998 28.09 24.37 28.8198 24.37 29.72C24.37 30.6202 25.0998 31.35 26 31.35Z" fill="#262632" />
        <path d="M30.65 23.44H21.35C21.27 23.44 21.2 23.44 21.12 23.44C20 23.5001 20.5 23.5 19.72 23.53C16.92 23.88 16 25.3 16 28.79V30.65C16 34.75 17.25 36 21.35 36H30.65C34.75 36 36 34.75 36 30.65V28.79C36 24.69 34.75 23.44 30.65 23.44ZM26 32.74C24.33 32.74 22.98 31.38 22.98 29.72C22.98 28.05 24.34 26.7 26 26.7C27.66 26.7 29.02 28.06 29.02 29.72C29.02 31.39 27.67 32.74 26 32.74Z" fill="#262632" />
        <path d="M20 24V22C20 18.69 21 16 26 16C28.9908 16 30.6564 16.8834 31.4372 18.3567" stroke="#262632" stroke-width="2" stroke-linecap="round" stroke-linejoin="round" />
    </symbol>

    <symbol id="unlock-blue-icon" width="52" height="52" viewBox="0 0 52 52" fill="none" xmlns="http://www.w3.org/2000/svg">
        <rect width="52" height="52" rx="26" fill="white" />
        <path d="M26 31.35C26.9002 31.35 27.63 30.6202 27.63 29.72C27.63 28.8197 26.9002 28.09 26 28.09C25.0998 28.09 24.37 28.8197 24.37 29.72C24.37 30.6202 25.0998 31.35 26 31.35Z" fill="#425DD5" />
        <path d="M30.65 23.4399H21.35C21.27 23.4399 21.2 23.4399 21.12 23.4399C20 23.5 20.5 23.4999 19.72 23.5299C16.92 23.8799 16 25.2999 16 28.7899V30.6499C16 34.7499 17.25 35.9999 21.35 35.9999H30.65C34.75 35.9999 36 34.7499 36 30.6499V28.7899C36 24.6899 34.75 23.4399 30.65 23.4399ZM26 32.7399C24.33 32.7399 22.98 31.3799 22.98 29.7199C22.98 28.0499 24.34 26.6999 26 26.6999C27.66 26.6999 29.02 28.0599 29.02 29.7199C29.02 31.3899 27.67 32.7399 26 32.7399Z" fill="#425DD5" />
        <path d="M20 24V22C20 18.69 21 16 26 16C28.9908 16 30.6564 16.8834 31.4372 18.3567" stroke="#425DD5" stroke-width="2" stroke-linecap="round" stroke-linejoin="round" />
    </symbol>

    <symbol id="instruction-icon-1" width="50" height="50" viewBox="0 0 50 50" fill="none" xmlns="http://www.w3.org/2000/svg">
        <rect width="50" height="50" rx="15" fill="#425DD5" />
        <path d="M28 35C27.59 35 27.25 34.66 27.25 34.25V15.75C27.25 15.34 27.59 15 28 15C28.41 15 28.75 15.34 28.75 15.75V34.25C28.75 34.66 28.41 35 28 35Z" fill="white" />
        <path d="M31 33H28V17H31C33.21 17 35 18.79 35 21V29C35 31.21 33.21 33 31 33Z" fill="white" />
        <path d="M18.9999 17C16.7899 17 14.9999 18.79 14.9999 21V29C14.9999 31.21 16.7899 33 18.9999 33H23.9999C24.5499 33 24.9999 32.55 24.9999 32V18C24.9999 17.45 24.5499 17 23.9999 17H18.9999ZM20.7499 28.5C20.7499 28.91 20.4099 29.25 19.9999 29.25C19.5899 29.25 19.2499 28.91 19.2499 28.5V21.5C19.2499 21.09 19.5899 20.75 19.9999 20.75C20.4099 20.75 20.7499 21.09 20.7499 21.5V28.5Z" fill="white" />
    </symbol>

    <symbol id="instruction-icon-2" width="50" height="50" viewBox="0 0 50 50" fill="none" xmlns="http://www.w3.org/2000/svg">
        <rect width="50" height="50" rx="15" fill="#425DD5" />
        <path d="M31.5 17.11L26.51 15.24C25.68 14.93 24.32 14.93 23.49 15.24L18.5 17.11C17.35 17.54 16.41 18.9 16.41 20.12V27.55C16.41 28.73 17.19 30.28 18.14 30.99L22.44 34.2C23.85 35.26 26.17 35.26 27.58 34.2L31.88 30.99C32.83 30.28 33.61 28.73 33.61 27.55V20.12C33.59 18.9 32.65 17.54 31.5 17.11ZM24.93 20.03C26.11 20.03 27.07 20.99 27.07 22.17C27.07 23.33 26.16 24.26 25.01 24.3H24.99H24.97C24.95 24.3 24.93 24.3 24.91 24.3C23.71 24.26 22.81 23.33 22.81 22.17C22.8 20.99 23.76 20.03 24.93 20.03ZM27.19 29.36C26.58 29.76 25.79 29.97 25 29.97C24.21 29.97 23.41 29.77 22.81 29.36C22.24 28.98 21.93 28.46 21.92 27.89C21.92 27.33 22.24 26.79 22.81 26.41C24.02 25.61 25.99 25.61 27.2 26.41C27.77 26.79 28.09 27.31 28.09 27.88C28.08 28.44 27.76 28.98 27.19 29.36Z" fill="white" />
    </symbol>

    <symbol id="instruction-icon-3" width="50" height="50" viewBox="0 0 50 50" fill="none" xmlns="http://www.w3.org/2000/svg">
        <rect width="50" height="50" rx="15" fill="#425DD5" />
        <path d="M30.39 28.67L26.35 25H23.64L19.6 28.67C18.47 29.69 18.1 31.26 18.65 32.68C19.2 34.09 20.54 35 22.05 35H27.94C29.46 35 30.79 34.09 31.34 32.68C31.89 31.26 31.52 29.69 30.39 28.67ZM26.82 31.14H23.18C22.8 31.14 22.5 30.83 22.5 30.46C22.5 30.09 22.81 29.78 23.18 29.78H26.82C27.2 29.78 27.5 30.09 27.5 30.46C27.5 30.83 27.19 31.14 26.82 31.14Z" fill="white" />
        <path d="M31.35 17.32C30.8 15.91 29.46 15 27.95 15H22.05C20.54 15 19.2 15.91 18.65 17.32C18.11 18.74 18.48 20.31 19.61 21.33L23.65 25H26.36L30.4 21.33C31.52 20.31 31.89 18.74 31.35 17.32ZM26.82 20.23H23.18C22.8 20.23 22.5 19.92 22.5 19.55C22.5 19.18 22.81 18.87 23.18 18.87H26.82C27.2 18.87 27.5 19.18 27.5 19.55C27.5 19.92 27.19 20.23 26.82 20.23Z" fill="white" />
    </symbol>

    <symbol id="close-icon" width="20" height="20" viewBox="0 0 20 20" fill="none" xmlns="http://www.w3.org/2000/svg">
        <path d="M10 0C4.49 0 0 4.49 0 10C0 15.51 4.49 20 10 20C15.51 20 20 15.51 20 10C20 4.49 15.51 0 10 0ZM13.36 12.3C13.65 12.59 13.65 13.07 13.36 13.36C13.21 13.51 13.02 13.58 12.83 13.58C12.64 13.58 12.45 13.51 12.3 13.36L10 11.06L7.7 13.36C7.55 13.51 7.36 13.58 7.17 13.58C6.98 13.58 6.79 13.51 6.64 13.36C6.35 13.07 6.35 12.59 6.64 12.3L8.94 10L6.64 7.7C6.35 7.41 6.35 6.93 6.64 6.64C6.93 6.35 7.41 6.35 7.7 6.64L10 8.94L12.3 6.64C12.59 6.35 13.07 6.35 13.36 6.64C13.65 6.93 13.65 7.41 13.36 7.7L11.06 10L13.36 12.3Z" fill="#E64848" />
    </symbol>

    <symbol id="mark-icon" width="20" height="20" viewBox="0 0 20 20" fill="none" xmlns="http://www.w3.org/2000/svg">
        <path d="M10 0C4.49 0 0 4.49 0 10C0 15.51 4.49 20 10 20C15.51 20 20 15.51 20 10C20 4.49 15.51 0 10 0ZM14.78 7.7L9.11 13.37C8.97 13.51 8.78 13.59 8.58 13.59C8.38 13.59 8.19 13.51 8.05 13.37L5.22 10.54C4.93 10.25 4.93 9.77 5.22 9.48C5.51 9.19 5.99 9.19 6.28 9.48L8.58 11.78L13.72 6.64C14.01 6.35 14.49 6.35 14.78 6.64C15.07 6.93 15.07 7.4 14.78 7.7Z" fill="#425DD5" />
    </symbol>

</svg>